<svg width="38" height="61" fill="none" xmlns="http://www.w3.org/2000/svg"><path d="M30.144 53.544l-2.4 1.8.064.085.069.08 2.267-1.965zm4.224 1.44h3v-3h-3v3zm0 2.016l-.111 2.998 3.111.115V57h-3zM6.24 56.904l-.075-3-.014.001h-.014l.103 2.999zM3.456 57h-3v3.105l3.103-.107L3.456 57zm0-2.016v-3h-3v3h3zM9.6 53.256l-1.9-2.322-.026.022-.026.022L9.6 53.256zm1.344-36.48l-2.87.873.023.077.028.075 2.819-1.025zm-2.4-2.88L7.267 16.61l.093.044.097.038 1.087-2.796zm-5.088-.768h-3v3h3v-3zm0-2.112l-.062-3-2.938.061v2.939h3zm15.168-1.248l.532 2.952.02-.003.018-.004-.57-2.945zM28.992 6.12h3V.978l-4.476 2.53 1.476 2.612zm-3 41.952c0 2.71.356 5.41 1.752 7.272l4.8-3.6c-.14-.186-.552-1.134-.552-3.672h-6zm1.885 7.437c1.657 1.912 4.123 2.475 6.491 2.475v-6c-1.6 0-1.95-.397-1.957-.405l-4.534 3.93zm3.491-.525V57h6v-2.016h-6zm3.111-.982c-6.895-.255-11.372-.386-13.359-.386v6c1.853 0 6.208.125 13.137.382l.222-5.996zm-13.359-.386c-2.285 0-7.285.097-14.955.289l.15 5.998c7.69-.192 12.61-.287 14.805-.287v-6zm-14.983.29l-2.784.096.206 5.996 2.784-.096-.206-5.996zM6.456 57v-2.016h-6V57h6zm-3 .984c3.09 0 5.978-.634 8.096-2.45l-3.904-4.556c-.57.488-1.778 1.006-4.192 1.006v6zm8.044-2.406c2.44-1.997 3.212-5.172 3.212-8.466h-6c0 2.594-.636 3.515-1.012 3.822l3.8 4.644zm3.212-8.466V23.496h-6v23.616h6zm0-23.616c0-3.133-.248-5.817-.949-7.745L8.125 17.8c.323.888.587 2.684.587 5.695h6zm-.898-7.593c-.644-2.116-1.966-3.94-4.183-4.803l-2.174 5.592c.087.034.365.128.617.957l5.74-1.747zM9.821 11.18c-1.706-.803-3.952-1.053-6.365-1.053v6c2.195 0 3.341.262 3.81.482l2.555-5.428zm-3.365 1.947v-2.112h-6v2.112h6zm-2.938.887c6.288-.13 11.518-.552 15.638-1.295l-1.064-5.904c-3.688.665-8.57 1.074-14.698 1.2l.124 6zm15.676-1.302c4.226-.818 8-2.13 11.274-3.981l-2.952-5.224c-2.613 1.477-5.752 2.597-9.462 3.315l1.14 5.89zm6.798-6.593v41.952h6V6.12h-6z" fill="#0095BF"/></svg>