<svg width="54" height="60" fill="none" xmlns="http://www.w3.org/2000/svg"><path d="M41.896 7.096l-1.734 2.448 1.734-2.448zm2.208 16.128l2.391 1.812.013-.018.013-.017-2.417-1.777zm-5.76 5.568l1.744 2.441-1.744-2.441zm-8.928 5.664l1.485 2.607.016-.01.016-.009-1.517-2.588zm-9.792 6.432l-1.965-2.267-6.077 5.267h8.042v-3zM45.16 40.6l.675 2.923.075-.017.074-.021-.824-2.885zm1.824-1.152l2.544 1.59.041-.066.037-.067-2.622-1.457zm.768-2.496v-3h-2.517l-.437 2.479 2.954.521zm2.208 0h3v-3h-3v3zm.384 18.528l-.665 2.925 3.94.896-.282-4.031-2.993.21zM4.456 55h-3v3h3v-3zm0-2.016h3v-7.243l-5.121 5.122 2.121 2.121zm4.224-3.936l-2-2.236-.026.024-.026.023 2.052 2.189zm9.312-8.928l-2.172-2.069 2.172 2.069zm6.72-9.216l2.622 1.457.006-.01.006-.01-2.634-1.437zm.768-18.048l-2.212 2.027.022.024.022.023 2.168-2.074zm-13.536-.672l1.407 2.65-1.407-2.65zm-5.76 4.8l-1.73 2.45 2.242 1.583 1.776-2.092-2.288-1.941zm-1.632-1.152l-2.503-1.654-1.604 2.427 2.377 1.678 1.73-2.451zM14.152 7l-1.41-2.648-.009.005-.008.004L14.152 7zm15.168-.168c4.938 0 8.447 1.015 10.842 2.712l3.468-4.896C39.881 1.993 35.006.832 29.32.832v6zm10.842 2.712c2.26 1.6 3.342 3.686 3.342 6.576h6c0-4.79-1.99-8.72-5.874-11.472l-3.468 4.896zm3.342 6.576c0 1.884-.573 3.636-1.817 5.327L46.521 25c1.956-2.66 2.983-5.645 2.983-8.881h-6zm-1.791 5.292c-1.41 1.862-3.11 3.508-5.113 4.939l3.488 4.882c2.476-1.769 4.617-3.835 6.407-6.197l-4.782-3.624zM36.6 26.351c-2.138 1.527-5.029 3.364-8.701 5.517l3.034 5.176c3.752-2.2 6.813-4.138 9.155-5.81L36.6 26.35zm-8.669 5.498c-4.636 2.64-8.116 4.904-10.272 6.772l3.93 4.534c1.684-1.46 4.732-3.484 9.312-6.092l-2.97-5.214zm-8.307 12.039H41.32v-6H19.624v6zm21.696 0c1.774 0 3.336-.093 4.515-.365l-1.35-5.846c-.485.112-1.483.211-3.165.211v6zm4.664-.403c1.237-.354 2.665-1.04 3.544-2.447l-5.088-3.18c.058-.093.118-.162.166-.208a.554.554 0 01.08-.066c.001-.001-.023.014-.083.04a2.25 2.25 0 01-.267.091l1.648 5.77zm3.622-2.58c.555-.999.884-2.206 1.1-3.432l-5.908-1.042c-.168.95-.351 1.407-.437 1.56l5.245 2.914zm-1.854-.953h2.208v-6h-2.208v6zm-.792-3c0 8.705.127 14.975.391 18.738l5.986-.42c-.248-3.533-.377-9.615-.377-18.318h-6zm4.049 15.603c-1.036-.236-2.882-.356-5.196-.433C43.38 52.04 40.118 52 36.04 52v6c4.05 0 7.236.04 9.571.118 2.454.083 3.696.203 4.068.287l1.33-5.85zM36.04 52H4.456v6H36.04v-6zM7.456 55v-2.016h-6V55h6zm-5.121-4.137a4.185 4.185 0 00-.115.119c-.013.015-.07.076-.135.157a3.004 3.004 0 00-.456.793c-.047.13-.136.454-.171.65-.028.296.029 1.032.15 1.459.252.528 1.045 1.394 1.555 1.695.426.16 1.177.278 1.484.271.54-.04.931-.22 1.011-.256.25-.112.427-.236.454-.254.108-.073.188-.138.202-.149l.067-.056a8.74 8.74 0 00.222-.199c.154-.14.41-.378.762-.706.708-.66 1.83-1.71 3.367-3.15l-4.104-4.378c-1.536 1.44-2.653 2.485-3.353 3.138-.352.328-.592.55-.726.673-.086.079-.086.078-.054.05l.055-.044c.01-.01.088-.072.193-.144.026-.017.204-.14.453-.252.08-.036.47-.217 1.01-.257.307-.006 1.058.112 1.484.271.51.302 1.303 1.167 1.556 1.696.12.426.177 1.163.149 1.459-.035.195-.124.52-.17.65a2.992 2.992 0 01-.455.789c-.064.08-.118.138-.128.15a2.853 2.853 0 01-.06.063l-.003.003-.002.001-4.242-4.242zm8.345.42c3.69-3.3 6.855-6.333 9.484-9.094l-4.344-4.138c-2.491 2.615-5.534 5.535-9.14 8.761l4 4.472zm9.484-9.094c2.747-2.884 5.135-6.164 7.17-9.828l-5.244-2.914c-1.805 3.248-3.897 6.112-6.27 8.604l4.344 4.138zm7.182-9.848c2.145-3.933 3.246-8.072 3.246-12.381h-6c0 3.243-.819 6.4-2.514 9.507l5.268 2.874zm3.246-12.381c0-3.592-.758-6.893-2.944-9.178l-4.336 4.148c.63.659 1.28 2.094 1.28 5.03h6zm-2.9-9.131c-2.168-2.365-5.255-3.277-8.644-3.277v6c2.371 0 3.572.624 4.22 1.331l4.424-4.054zm-8.644-3.277c-3.1 0-5.966.63-8.511 1.983l2.814 5.298c1.55-.823 3.421-1.281 5.697-1.281v-6zm-8.511 1.983c-2.442 1.297-4.65 3.161-6.64 5.508l4.575 3.882c1.592-1.877 3.225-3.213 4.88-4.092l-2.816-5.298zm-2.623 4.998l-1.632-1.152-3.46 4.902 1.632 1.152 3.46-4.902zm-.86 2.953c2.23-3.373 5.064-5.975 8.525-7.847L12.726 4.36C8.378 6.713 4.812 10 2.049 14.178l5.006 3.308zm8.508-7.838c3.404-1.812 7.934-2.816 13.758-2.816v-6c-6.464 0-12.046 1.108-16.578 3.52l2.82 5.296z" fill="#0095BF"/></svg>