<svg width="52" height="73" fill="none" xmlns="http://www.w3.org/2000/svg"><path d="M38.96 24.952l1.762 2.428.007-.005-1.769-2.423zm-16.896 5.856l-.417-2.97.666 5.96-.249-2.99zm20.16 3.936l-1.628 2.52.014.009.014.008 1.6-2.537zm-.288 23.232l-1.927-2.3-.01.01-.01.008 1.947 2.282zM4.304 69.496h-3v3h3v-3zm0-2.016l-.143-2.997-2.857.136v2.861h3zM16.4 64.6l-1.166-2.764-.008.003-.008.004L16.4 64.6zm10.176-7.488l-2.275-1.956-.02.024-.02.025 2.315 1.907zm1.44-20.736l-2.415 1.78.011.015.012.015 2.392-1.81zm-7.296-4.032l.25-2.99-.774-.064-.707.318 1.231 2.736zm-3.072 1.248l-.949-2.846-.038.013-.038.014 1.025 2.819zM14 33.688l-1.874 2.343.158.126.172.104L14 33.688zm.48-2.88l1.342 2.683.103-.051.098-.06-1.543-2.572zm4.32-.48l-.331 2.982.331-2.982zm1.536.192l-.424 2.97 1.114.159.944-.613-1.634-2.516zm5.088-18.432l-2.074 2.168.023.022.024.021 2.027-2.211zM12.08 11.8l1.437 2.634.013-.008.014-.007L12.08 11.8zm-5.376 4.992l-1.457 2.622L7.65 20.75l1.54-2.276-2.485-1.681zm-1.728-.96L2.4 14.295.815 16.952l2.704 1.502 1.457-2.622zm8.352-8.736l1.62 2.525-1.62-2.525zm13.536-.264c4.96 0 8.743.929 11.541 2.566l3.03-5.18C37.449 1.888 32.528.832 26.864.832v6zm11.541 2.566c2.623 1.534 3.603 3.344 3.603 5.57h6c0-4.686-2.412-8.316-6.573-10.75l-3.03 5.18zm3.603 5.57c0 2.444-1.269 4.97-4.817 7.561l3.538 4.846c4.516-3.297 7.279-7.427 7.279-12.407h-6zm-4.81 7.556c-3.42 2.483-8.517 4.326-15.551 5.313l.834 5.942c7.557-1.06 13.726-3.122 18.241-6.4l-3.524-4.855zM22.313 33.798c.642-.054 1.662-.086 3.111-.086v-6c-1.495 0-2.715.032-3.61.106l.5 5.98zm3.111-.086c6.695 0 11.661 1.283 15.172 3.552l3.256-5.04c-4.809-3.107-11.043-4.512-18.428-4.512v6zm15.2 3.57c3.374 2.128 4.84 4.798 4.84 8.214h6c0-5.672-2.694-10.17-7.64-13.29l-3.2 5.075zm4.84 8.214c0 3.594-1.622 6.968-5.455 10.18l3.854 4.6c4.871-4.084 7.601-9.03 7.601-14.78h-6zm-5.475 10.197c-3.958 3.377-9.15 6.052-15.688 7.946l1.67 5.762c7.159-2.074 13.166-5.095 17.912-9.142l-3.894-4.566zM24.301 63.64c-6.58 1.906-13.243 2.857-19.997 2.857v6a77.502 77.502 0 0021.667-3.094l-1.67-5.764zM7.304 69.496V67.48h-6v2.016h6zm-2.857.98c4.42-.21 8.802-1.262 13.135-3.119l-2.364-5.514c-3.731 1.599-7.412 2.467-11.057 2.64l.286 5.994zm13.12-3.112c4.518-1.906 8.313-4.687 11.325-8.345l-4.632-3.814c-2.364 2.87-5.353 5.081-9.026 6.63l2.332 5.53zm11.284-8.296c3.25-3.78 4.853-8.326 4.853-13.476h-6c0 3.81-1.149 6.943-3.403 9.564l4.55 3.912zm4.853-13.476c0-4.25-1.013-8.01-3.296-11.026l-4.784 3.62c1.301 1.72 2.08 4.104 2.08 7.406h6zm-3.273-10.996c-2.317-3.145-5.547-4.915-9.462-5.242l-.498 5.98c2.23.185 3.863 1.103 5.13 2.822l4.83-3.56zM19.49 29.608c-1.244.56-2.162.929-2.79 1.138l1.898 5.692c.908-.303 2.038-.766 3.354-1.358l-2.462-5.472zm-2.866 1.165a3.411 3.411 0 01-1.183.203v6a9.41 9.41 0 003.233-.565l-2.05-5.638zm-1.183.203a2.22 2.22 0 01-.194-.007c-.044-.004-.062-.008-.058-.007.004.001.04.008.098.03.059.02.15.058.258.123l-3.088 5.146c1.012.606 2.142.715 2.984.715v-6zm.434.37c.292.232.472.517.566.761.085.22.08.355.08.333h-6c0 1.099.318 2.56 1.606 3.59l3.748-4.685zm.646 1.094c0 .035-.01.258-.174.537-.172.292-.398.45-.524.514l-2.684-5.366a4.674 4.674 0 00-1.964 1.81c-.484.824-.654 1.702-.654 2.505h6zm-.497.94c.032-.018.279-.148.953-.148v-6c-1.373 0-2.79.254-4.04 1.003l3.087 5.145zm.953-.148c.54 0 1.037.027 1.493.078l.662-5.964a19.506 19.506 0 00-2.155-.114v6zm1.493.078a47.19 47.19 0 011.443.18l.848-5.94c-.486-.07-1.03-.137-1.629-.204l-.662 5.964zm3.5-.274c5.591-3.63 8.759-8.557 8.759-14.708h-6c0 3.705-1.76 6.906-6.026 9.676l3.268 5.032zm8.759-14.708c0-3.31-.939-6.308-3.277-8.451l-4.054 4.422c.734.673 1.331 1.834 1.331 4.029h6zm-3.23-8.408c-2.203-2.107-5.162-2.944-8.41-2.944v6c2.256 0 3.521.57 4.262 1.28l4.148-4.336zm-8.41-2.944a17.14 17.14 0 00-8.472 2.205l2.928 5.238a11.138 11.138 0 015.544-1.443v-6zm-8.445 2.19c-2.57 1.402-4.709 3.41-6.424 5.945l4.97 3.362c1.229-1.817 2.674-3.137 4.328-4.04l-2.874-5.267zM8.161 14.17l-1.728-.96-2.914 5.245 1.728.96 2.914-5.245zm-.609 3.2c1.952-3.271 4.416-5.836 7.396-7.748l-3.24-5.05C7.904 7.01 4.8 10.27 2.4 14.295l5.152 3.074zm7.396-7.748c2.752-1.766 6.64-2.789 11.916-2.789v-6c-5.987 0-11.124 1.153-15.156 3.739l3.24 5.05z" fill="#0095BF"/></svg>