<svg width="57" height="72" fill="none" xmlns="http://www.w3.org/2000/svg"><path d="M53.208 53.176l-.537 2.952 3.826.695-.298-3.877-2.991.23zm-9.6-.384v-3h-3v3h3zm0 15.744v3h3v-3h-3zm-13.44 0h-3v3h3v-3zm0-15.84h3v-3h-3v3zm-26.976 0h-3v3h3v-3zm0-2.016L.883 48.764l-.691.833v1.083h3zm38.88-46.848v-3h-1.409l-.9 1.084 2.309 1.916zm1.536 0h3v-3h-3v3zm0 36.672h-3v3h3v-3zm4.416-.288l.675 2.923.075-.017.074-.021-.824-2.885zm1.824-1.152l2.544 1.59.04-.066.038-.067-2.622-1.457zm.768-2.496v-3h-2.517l-.437 2.479 2.954.521zm2.208 0h3v-3h-3v3zm-22.656 3.936v3h3v-3h-3zm0-19.296h3v-8.344l-5.313 6.434 2.313 1.91zM14.232 40.504l-2.313-1.91-4.055 4.91h6.368v-3zm39.513 9.72c-1.728-.314-5.221-.432-10.137-.432v6c5.068 0 7.975.138 9.063.336l1.074-5.904zm-13.137 2.568v15.744h6V52.792h-6zm3 12.744h-13.44v6h13.44v-6zm-10.44 3v-15.84h-6v15.84h6zm-3-18.84H3.192v6h26.976v-6zm-23.976 3V50.68h-6v2.016h6zm-.691-.1L44.38 5.748l-4.617-3.832L.883 48.764 5.5 52.596zM42.072 6.832h1.536v-6h-1.536v6zm-1.464-3v36.672h6V3.832h-6zm3 39.672h.576v-6h-.576v6zm.576 0c1.774 0 3.336-.093 4.515-.365l-1.35-5.846c-.485.112-1.483.211-3.165.211v6zm4.664-.403c1.237-.354 2.665-1.04 3.544-2.447l-5.088-3.18c.058-.093.118-.162.166-.208a.554.554 0 01.08-.066c.001-.001-.023.014-.083.04a2.25 2.25 0 01-.267.091l1.648 5.77zm3.623-2.58c.554-.999.883-2.206 1.1-3.432l-5.91-1.042c-.167.95-.35 1.407-.436 1.56l5.245 2.914zm-1.855-.953h2.208v-6h-2.208v6zm-.792-3c0 7.748.127 13.385.393 16.838l5.982-.46c-.246-3.203-.375-8.637-.375-16.378h-6zm-16.656 3.936V21.208h-6v19.296h6zm-5.313-21.206L11.919 38.594l4.626 3.82 15.936-19.296-4.626-3.82zM14.232 43.504h15.936v-6H14.232v6z" fill="#0095BF"/></svg>