<svg width="18" height="40" fill="none" xmlns="http://www.w3.org/2000/svg"><path d="M7.071 27.14a7.061 7.061 0 01-4.997-2.084A7.135 7.135 0 010 20.032V7.108a7.135 7.135 0 012.074-5.024A7.061 7.061 0 017.07 0h3.858a7.061 7.061 0 014.998 2.084A7.135 7.135 0 0118 7.108v12.924a7.136 7.136 0 01-2.072 5.022 7.062 7.062 0 01-4.994 2.087v5.705l2.163-2.174a.641.641 0 01.91 0l1.818 1.828a.648.648 0 010 .913L9.46 39.811a.641.641 0 01-.908 0l-6.365-6.398a.648.648 0 010-.913l1.819-1.828a.641.641 0 01.909 0l2.163 2.174v-5.705H7.07zm9.643-20.032a5.838 5.838 0 00-1.696-4.11 5.777 5.777 0 00-4.09-1.706H7.072a5.777 5.777 0 00-4.089 1.706 5.838 5.838 0 00-1.696 4.11v3.231h15.428V7.11zM4.461 32.043l-.91.913 5.455 5.483 5.455-5.483-.91-.913-2.805 2.82a.642.642 0 01-1.098-.457V19.358H8.364v15.048a.649.649 0 01-.397.598.64.64 0 01-.701-.14L4.46 32.042zm3.26-13.978h2.57a.642.642 0 01.643.647v7.136a5.778 5.778 0 004.086-1.707 5.838 5.838 0 001.694-4.109v-8.4H1.286v8.4a5.838 5.838 0 001.696 4.11 5.777 5.777 0 004.09 1.706h.006v-7.136a.648.648 0 01.643-.647z" fill="#fff"/><path d="M10.283 9.046H7.712a.641.641 0 01-.643-.646V3.23a.648.648 0 01.643-.646h2.57a.641.641 0 01.644.647V8.4a.648.648 0 01-.643.645zm-.643-5.17H8.354v3.878H9.64V3.877z" fill="#fff"/></svg>