<svg width="178" height="201" fill="none" xmlns="http://www.w3.org/2000/svg"><path d="M97.985 125.636c-.946 0-1.892.268-2.681.805-.736.482-1.314 1.126-1.84 1.877v-2.306h-1.682v13.41h1.682v-5.686a11.339 11.339 0 01.473-3.755 4.223 4.223 0 011.525-1.931c.63-.483 1.419-.697 2.207-.697.631 0 1.262.16 1.735.536.473.322.841.805 1.051 1.395.263 1.072.368 2.199.316 3.325v6.866h1.682v-5.257c0-1.931.158-3.272.473-4.13.315-.804.788-1.502 1.472-1.984a3.702 3.702 0 012.26-.751c.631 0 1.209.16 1.735.482.473.322.841.751 1.051 1.288.263.965.368 1.984.316 2.95v7.349h1.734v-7.349c.053-1.287-.105-2.575-.525-3.755a4.378 4.378 0 00-1.525-1.985 4.38 4.38 0 00-2.418-.697c-.946 0-1.892.268-2.733.805a6.163 6.163 0 00-2.103 2.413 6.01 6.01 0 00-.946-1.823 3.87 3.87 0 00-1.42-1.019c-.578-.269-1.208-.376-1.84-.376zm-40.58 7.027a6.954 6.954 0 001.997 5.042c1.997 2.092 5.099 2.682 7.674 1.395.947-.483 1.735-1.18 2.366-1.985v2.307h1.682v-13.41h-1.682v2.467c-.578-.858-1.367-1.609-2.313-2.092-.894-.483-1.892-.697-2.944-.697-1.787 0-3.574.697-4.783 2.038-1.262 1.234-1.998 3.058-1.998 4.935zm6.938-5.364c1.42-.054 2.733.536 3.68 1.555.998 1.02 1.524 2.468 1.524 3.916 0 .966-.21 1.931-.683 2.736-.474.804-1.104 1.502-1.893 1.931-.788.483-1.734.697-2.628.697-.894 0-1.787-.268-2.576-.697-.788-.483-1.472-1.18-1.892-2.038a5.525 5.525 0 010-5.418 5.091 5.091 0 014.468-2.682zm-51.567 8.85l-7.254-14.911h-.315l-2.523 18.13h1.734l1.735-13.088 6.36 13.088h.473l6.308-12.981 1.735 12.981h1.735l-2.576-18.13h-.263l-7.149 14.911zm26.283 3.273v-13.41h-1.682v2.467c-.579-.858-1.367-1.609-2.313-2.092-.894-.483-1.892-.697-2.944-.697-1.787 0-3.574.697-4.783 2.038a6.71 6.71 0 00-1.998 4.935 6.953 6.953 0 001.998 5.042c1.997 2.092 5.099 2.682 7.674 1.395.947-.483 1.735-1.18 2.366-1.985v2.307h1.682zm-2.26-3.916c-.474.804-1.104 1.502-1.893 1.931-.788.483-1.734.697-2.628.697-.894 0-1.787-.268-2.576-.697-.788-.483-1.472-1.18-1.892-2.038a5.526 5.526 0 010-5.418c.893-1.663 2.628-2.736 4.52-2.682 1.42-.054 2.734.536 3.68 1.555.999 1.02 1.525 2.468 1.525 3.916-.053.966-.263 1.878-.736 2.736zm15.927 3.862h1.682v-6.92c.053-1.341-.105-2.735-.526-4.023a4.55 4.55 0 00-1.682-2.038c-.788-.536-1.682-.805-2.628-.751a5.28 5.28 0 00-2.68.697c-.895.537-1.63 1.234-2.261 2.092v-2.413h-1.682v13.41h1.682v-4.935a16.812 16.812 0 01.263-3.648c.263-1.019.788-1.931 1.577-2.575.788-.697 1.734-1.019 2.733-1.019.788-.053 1.524.215 2.155.698.578.536.999 1.233 1.104 1.984.158 1.019.21 2.039.21 3.111v6.33h.053zm78.375-13.41v13.41h1.682v-4.881a16.862 16.862 0 01.263-3.648c.263-1.019.789-1.931 1.577-2.575.788-.697 1.735-1.019 2.733-1.019.789-.053 1.525.215 2.156.698.578.536.998 1.233 1.103 1.984.158 1.019.211 2.039.211 3.111v6.384h1.682v-6.92c.052-1.341-.105-2.736-.526-4.023a4.546 4.546 0 00-1.682-2.038c-.788-.537-1.682-.805-2.628-.751-.946 0-1.84.214-2.681.697-.894.536-1.63 1.234-2.26 2.092v-2.414h-1.63v-.107zm16.033-4.989v4.989h-2.313v1.502h2.313v11.908h1.682V127.46h2.681v-1.502h-2.681v-4.989h-1.682zm-20.554 7.242a6.432 6.432 0 00-5.361-2.629c-2.05-.053-3.995.859-5.204 2.522-.999 1.287-1.577 2.896-1.525 4.559 0 1.77.631 3.54 1.84 4.881 1.209 1.448 2.891 2.146 5.046 2.146.894 0 1.788-.161 2.629-.429.788-.322 1.472-.751 2.05-1.341.683-.644 1.209-1.395 1.629-2.253l-1.419-.751c-.368.697-.894 1.341-1.419 1.931a5.06 5.06 0 01-1.63.965c-.631.215-1.314.376-1.945.376-1.314.053-2.575-.537-3.522-1.502-.946-1.019-1.471-2.414-1.471-3.809h11.827c-.053-1.716-.578-3.325-1.525-4.666zm-10.25 3.111a6.02 6.02 0 011.525-2.789c.893-.859 2.102-1.288 3.311-1.288.789 0 1.525.161 2.261.483.683.322 1.261.751 1.734 1.341.473.644.841 1.395.999 2.199h-9.83v.054zm-32.222 11.103a5.525 5.525 0 01-2.944.644 5.635 5.635 0 01-2.944-.644c-.84-.429-1.472-1.126-1.945-1.984h-1.84a7.329 7.329 0 001.577 2.413 5.745 5.745 0 002.208 1.288 9.796 9.796 0 003.049.483c1.367.053 2.733-.322 3.942-1.02a5.557 5.557 0 002.313-2.843c.368-1.34.526-2.735.473-4.13v-10.674h-1.682v2.306a7.575 7.575 0 00-2.47-2.038 6.035 6.035 0 00-2.734-.644c-3.784 0-6.78 3.112-6.78 6.974 0 1.18.315 2.36.893 3.433a6.49 6.49 0 002.47 2.467 6.842 6.842 0 006.361.268c.894-.429 1.735-1.073 2.313-1.877v.697c.052 1.073-.105 2.199-.526 3.218a4.715 4.715 0 01-1.734 1.663zm.84-6.115a5.601 5.601 0 01-7.516 0c-.947-.965-1.472-2.306-1.472-3.647 0-.966.21-1.877.683-2.682.473-.805 1.104-1.502 1.945-1.985a5.27 5.27 0 012.681-.697c.894 0 1.787.214 2.576.697a4.479 4.479 0 011.84 1.878c.42.804.683 1.77.63 2.682.105 1.394-.368 2.789-1.366 3.754zM65.395 96.563h-2.313v1.502h2.313v11.908h1.682V98.065h2.681v-1.502h-2.68v-4.988h-1.683v4.988zm-27.912 2.253a6.433 6.433 0 00-5.362-2.628c-2.05-.054-3.995.858-5.204 2.52-.998 1.288-1.577 2.897-1.524 4.56 0 1.77.63 3.541 1.84 4.882 1.209 1.448 2.89 2.145 5.046 2.145.894 0 1.787-.161 2.628-.429.789-.322 1.472-.751 2.05-1.341.684-.644 1.21-1.395 1.63-2.253l-1.42-.751c-.367.698-.893 1.341-1.419 1.931a5.077 5.077 0 01-1.63.966c-.63.214-1.313.375-1.944.375-1.314.054-2.576-.536-3.522-1.502-.946-1.019-1.472-2.413-1.472-3.808h11.722a7.646 7.646 0 00-1.42-4.667zm-10.25 3.111a6.022 6.022 0 011.524-2.789c.894-.858 2.103-1.287 3.312-1.287.788 0 1.524.16 2.26.483.683.321 1.261.75 1.735 1.34.473.644.84 1.395.998 2.2h-9.83v.053zm-19.607 8.046h.315l5.362-13.731 5.256 13.731h.368l5.1-18.13h-1.788l-3.68 13.088-5.046-13.088h-.368l-5.099 13.088-3.627-13.088h-1.84l5.047 18.13zm51.199 0h1.682V91.36h-1.682v18.613zm22.655-12.98c-.788-.537-1.682-.805-2.628-.751-.946 0-1.84.214-2.68.697-.895.536-1.683 1.234-2.261 2.092v-7.563h-1.682v18.613h1.682v-4.935a16.812 16.812 0 01.263-3.648c.263-1.019.788-1.93 1.577-2.575.788-.697 1.734-1.019 2.733-1.019.788-.053 1.524.215 2.155.698.578.536.999 1.233 1.157 1.984.157 1.019.21 2.039.157 3.111v6.384h1.682v-6.92c.053-1.395-.105-2.736-.525-4.023a3.972 3.972 0 00-1.63-2.145zm-30.383-.054c-.893-.483-1.892-.697-2.943-.697-1.788 0-3.575.697-4.784 2.038a6.711 6.711 0 00-1.997 4.935 6.954 6.954 0 001.997 5.042c1.998 2.092 5.1 2.682 7.675 1.394.946-.482 1.735-1.18 2.365-1.984v2.306h1.682v-13.41H53.41v2.468c-.578-.859-1.367-1.61-2.313-2.092zm2.418 6.383c0 .965-.21 1.931-.683 2.736-.473.804-1.104 1.502-1.892 1.931-.789.482-1.735.697-2.629.697-.893 0-1.787-.268-2.575-.697-.789-.483-1.472-1.18-1.893-2.039a5.524 5.524 0 010-5.417c.894-1.663 2.629-2.736 4.521-2.682 1.42-.054 2.733.536 3.68 1.555a5.435 5.435 0 011.471 3.916zm10.198-36.904H62.03v13.41h1.682v-13.41zm32.065 2.253a6.432 6.432 0 00-5.362-2.629c-2.05-.053-3.995.859-5.204 2.521-.998 1.288-1.577 2.897-1.524 4.56 0 1.77.63 3.54 1.84 4.881 1.209 1.448 2.89 2.146 5.046 2.146.894 0 1.787-.161 2.628-.43.789-.321 1.472-.75 2.05-1.34.684-.644 1.21-1.395 1.63-2.253l-1.42-.751c-.367.697-.893 1.34-1.419 1.93-.473.43-1.05.752-1.63.966-.63.215-1.313.376-1.944.376-1.314.053-2.576-.537-3.522-1.502-.946-1.02-1.472-2.414-1.472-3.809H97.25c0-1.716-.473-3.325-1.472-4.666zM85.58 71.78a6.02 6.02 0 011.525-2.788c.893-.859 2.102-1.288 3.311-1.288a5.52 5.52 0 012.26.483c.684.322 1.262.75 1.735 1.34.474.645.841 1.396 1 2.2h-9.83v.054zM8.361 64.059c1.209-.698 2.575-1.073 3.942-1.02 1.209 0 2.47.269 3.574.805a7.444 7.444 0 012.786 2.36l1.42-1.073c-.841-1.18-1.998-2.199-3.312-2.842-1.42-.698-2.944-1.02-4.52-1.02a9.454 9.454 0 00-6.887 2.736c-1.787 1.716-2.786 4.184-2.733 6.705a9.765 9.765 0 002.26 6.49c1.787 2.092 4.258 3.165 7.36 3.165 1.524 0 3.048-.322 4.467-.965 1.315-.59 2.419-1.502 3.312-2.682l-1.42-1.073c-1.523 1.93-3.836 3.004-6.254 3.004-2.103.053-4.1-.751-5.625-2.2C5.26 75 4.471 73.016 4.523 70.924c0-1.395.316-2.736 1-3.97.682-1.233 1.681-2.199 2.838-2.896zm30.856 2.36v13.41h1.682v-4.882a16.803 16.803 0 01.262-3.647c.263-1.02.789-1.931 1.578-2.575.788-.697 1.734-1.019 2.733-1.019.788-.053 1.524.215 2.155.698.578.536.999 1.233 1.104 1.984.158 1.02.21 2.038.21 3.111v6.383h1.682v-6.92c.053-1.34-.105-2.735-.525-4.022a4.55 4.55 0 00-1.682-2.038c-.789-.537-1.683-.805-2.629-.751-.946 0-1.84.214-2.68.697-.894.536-1.63 1.234-2.26 2.092v-2.414h-1.63v-.107zm-10.04-.322c-1.945-.054-3.785.805-5.047 2.253-2.47 2.79-2.418 7.027.105 9.762a6.448 6.448 0 004.942 2.092 6.372 6.372 0 004.94-2.092c2.524-2.735 2.576-6.973.106-9.762a6.31 6.31 0 00-5.046-2.253zm4.468 9.816a4.734 4.734 0 01-1.893 1.931c-1.63.912-3.574.912-5.151 0a5.494 5.494 0 01-1.892-1.93c-.474-.805-.684-1.771-.684-2.737 0-1.448.526-2.843 1.524-3.862 1.893-2.038 5.047-2.145 7.044-.214l.21.214c1 1.02 1.525 2.414 1.525 3.862a6.02 6.02 0 01-.683 2.736zm66.705-9.494v13.41h1.682v-4.882a16.86 16.86 0 01.263-3.647c.263-1.02.789-1.931 1.577-2.575.789-.697 1.735-1.019 2.734-1.019.788-.053 1.524.215 2.155.698.578.536.999 1.233 1.104 1.984.157 1.02.21 2.038.21 3.111v6.383h1.682v-6.92c.053-1.34-.105-2.735-.526-4.022a4.55 4.55 0 00-1.682-2.038c-.788-.537-1.682-.805-2.628-.751-.946 0-1.84.214-2.681.697-.893.536-1.629 1.234-2.26 2.092v-2.414h-1.63v-.107zm-47.204 0v1.502h1.735v11.908h1.682V67.92h2.734v-1.502h-2.734v-1.824c0-.483 0-.965.105-1.394.053-.215.21-.376.42-.483.264-.161.526-.215.842-.215.578 0 1.104.161 1.577.43v-1.717a6.158 6.158 0 00-1.945-.322c-.526 0-1.051.107-1.524.375-.368.215-.684.59-.894 1.02a5.313 5.313 0 00-.263 2.038v2.092h-1.735zm9.725-2.682c.788 0 1.367-.644 1.367-1.395 0-.804-.631-1.448-1.42-1.448-.367 0-.735.16-.998.43a1.48 1.48 0 00-.42 1.018c.104.751.735 1.395 1.471 1.395zm15.927 5.15c-.578-.859-1.366-1.61-2.313-2.093-.893-.482-1.892-.697-2.943-.697-1.787 0-3.575.697-4.784 2.038a6.71 6.71 0 00-1.997 4.935 6.953 6.953 0 001.997 5.042c1.998 2.092 5.1 2.682 7.675 1.395.946-.483 1.735-1.18 2.365-1.985v2.307h1.683V61.215h-1.683v7.67zm-.578 7.08c-.473.804-1.104 1.502-1.892 1.93-.789.483-1.735.698-2.629.698-.893 0-1.787-.268-2.575-.697-.789-.483-1.472-1.18-1.892-2.039a5.525 5.525 0 010-5.417c.893-1.663 2.628-2.736 4.52-2.682 1.42-.054 2.734.536 3.68 1.555.998 1.02 1.524 2.468 1.524 3.916a7.054 7.054 0 01-.736 2.736zm38.163-14.537v4.989h-2.313v1.502h2.313v11.908h1.682V67.92h2.681v-1.502h-2.681v-4.989h-1.682zm61.239-57.501v-1.61H2.052V34.18H3.63V3.928h172.415v193.639H3.63v-27.678H2.053v29.287h175.569V3.927z" fill="#fff"/></svg>