<svg width="176" height="197" fill="none" xmlns="http://www.w3.org/2000/svg"><path d="M95.932 123.318c-.946 0-1.892.268-2.68.804-.737.483-1.315 1.127-1.84 1.878v-2.307h-1.683v13.41h1.683v-5.686a11.336 11.336 0 01.472-3.754 4.218 4.218 0 011.525-1.931c.63-.483 1.42-.698 2.208-.698.63 0 1.261.161 1.734.537.473.321.841.804 1.052 1.394.262 1.073.368 2.199.315 3.326v6.866h1.682V131.9c0-1.931.158-3.272.473-4.13.316-.805.789-1.502 1.472-1.985a3.702 3.702 0 012.26-.751c.631 0 1.209.161 1.735.483.473.322.841.751 1.051 1.287.263.966.368 1.985.316 2.951v7.348h1.734v-7.348c.053-1.288-.105-2.575-.525-3.755a4.371 4.371 0 00-1.525-1.985c-.736-.483-1.577-.697-2.418-.697-.946 0-1.892.268-2.733.804a6.166 6.166 0 00-2.103 2.414 6.001 6.001 0 00-.946-1.824 3.879 3.879 0 00-1.42-1.019c-.577-.268-1.208-.375-1.839-.375zm-40.58 7.027a6.953 6.953 0 001.997 5.042c1.998 2.092 5.099 2.682 7.675 1.394.946-.482 1.734-1.18 2.365-1.984v2.306h1.682v-13.41H67.39v2.468c-.578-.859-1.367-1.61-2.313-2.092-.893-.483-1.892-.698-2.943-.698-1.788 0-3.575.698-4.784 2.039-1.262 1.233-1.997 3.057-1.997 4.935zm6.938-5.364c1.42-.054 2.734.536 3.68 1.555.999 1.019 1.524 2.468 1.524 3.916 0 .965-.21 1.931-.683 2.735-.473.805-1.104 1.502-1.893 1.931-.788.483-1.734.698-2.628.698-.893 0-1.787-.268-2.576-.698-.788-.482-1.471-1.18-1.892-2.038a5.524 5.524 0 010-5.417 5.09 5.09 0 014.468-2.682zm-51.567 8.85L3.47 118.919h-.315L.63 137.049h1.734L4.1 123.961l6.36 13.088h.474l6.307-12.98 1.735 12.98h1.735l-2.576-18.13h-.263l-7.149 14.912zm26.283 3.272v-13.41h-1.682v2.468c-.578-.859-1.367-1.61-2.313-2.092-.894-.483-1.892-.698-2.944-.698-1.787 0-3.574.698-4.783 2.039a6.71 6.71 0 00-1.997 4.935 6.954 6.954 0 001.997 5.042c1.998 2.092 5.099 2.682 7.675 1.394.946-.482 1.734-1.18 2.365-1.984v2.306h1.682zm-2.26-3.916c-.473.805-1.104 1.502-1.893 1.931-.788.483-1.734.698-2.628.698-.893 0-1.787-.268-2.576-.698-.788-.482-1.471-1.18-1.892-2.038a5.524 5.524 0 010-5.417c.894-1.663 2.628-2.736 4.52-2.682 1.42-.054 2.734.536 3.68 1.555 1 1.019 1.525 2.468 1.525 3.916-.053.965-.263 1.877-.736 2.735zm15.927 3.862h1.682v-6.919c.053-1.341-.105-2.736-.525-4.023a4.547 4.547 0 00-1.682-2.038c-.789-.537-1.683-.805-2.629-.751a5.27 5.27 0 00-2.68.697c-.894.536-1.63 1.234-2.26 2.092v-2.414h-1.683v13.41h1.682v-4.935a16.801 16.801 0 01.263-3.647c.263-1.019.788-1.931 1.577-2.575.788-.697 1.735-1.019 2.733-1.019.789-.054 1.525.214 2.155.697.579.537 1 1.234 1.104 1.985.158 1.019.21 2.038.21 3.111v6.329h.053zm78.375-13.409v13.409h1.682v-4.881a16.858 16.858 0 01.263-3.647c.263-1.019.789-1.931 1.577-2.575.789-.697 1.735-1.019 2.734-1.019.788-.054 1.524.214 2.155.697.578.537.999 1.234 1.104 1.985.157 1.019.21 2.038.21 3.111v6.383h1.682v-6.919c.053-1.341-.105-2.736-.526-4.023a4.549 4.549 0 00-1.682-2.039c-.788-.536-1.682-.804-2.628-.751-.946 0-1.84.215-2.681.698-.893.536-1.629 1.233-2.26 2.092v-2.414h-1.63v-.107zm16.033-4.989v4.989h-2.313v1.501h2.313v11.908h1.682v-11.908h2.681v-1.501h-2.681v-4.989h-1.682zm-20.553 7.241a6.433 6.433 0 00-5.362-2.628c-2.05-.054-3.995.858-5.204 2.521-.999 1.288-1.577 2.897-1.524 4.56 0 1.77.63 3.54 1.839 4.881 1.209 1.448 2.892 2.145 5.047 2.145.893 0 1.787-.161 2.628-.429.789-.322 1.472-.751 2.05-1.341.683-.643 1.209-1.394 1.63-2.253l-1.42-.751c-.368.698-.893 1.341-1.419 1.931a5.058 5.058 0 01-1.629.966c-.631.215-1.315.375-1.945.375-1.315.054-2.576-.536-3.522-1.501-.946-1.02-1.472-2.414-1.472-3.809h11.827c-.052-1.716-.578-3.326-1.524-4.667zm-10.251 3.112a6.023 6.023 0 011.525-2.79c.893-.858 2.102-1.287 3.311-1.287.789 0 1.525.161 2.261.483.683.322 1.261.751 1.734 1.341.474.643.842 1.394.999 2.199h-9.83v.054zm-32.222 11.103c-.894.483-1.893.697-2.944.644a5.645 5.645 0 01-2.944-.644c-.84-.429-1.471-1.126-1.945-1.985h-1.84a7.335 7.335 0 001.578 2.414 5.74 5.74 0 002.207 1.287 9.797 9.797 0 003.05.483c1.366.054 2.733-.322 3.942-1.019a5.565 5.565 0 002.313-2.843c.368-1.341.525-2.735.473-4.13V123.64h-1.682v2.306a7.574 7.574 0 00-2.471-2.038 6.035 6.035 0 00-2.733-.644c-3.785 0-6.781 3.111-6.781 6.973 0 1.18.315 2.36.893 3.433a6.492 6.492 0 002.47 2.468 6.845 6.845 0 006.361.268c.894-.429 1.735-1.073 2.313-1.878v.698c.053 1.073-.105 2.199-.525 3.218a4.732 4.732 0 01-1.735 1.663zm.84-6.115a5.6 5.6 0 01-7.516 0c-.946-.965-1.472-2.306-1.472-3.647 0-.966.21-1.878.684-2.682.473-.805 1.103-1.502 1.944-1.985a5.27 5.27 0 012.681-.697c.894 0 1.788.214 2.576.697a4.483 4.483 0 011.84 1.877c.42.805.683 1.77.63 2.682.106 1.395-.367 2.79-1.366 3.755zM63.343 94.245H61.03v1.502h2.313v11.908h1.682V95.747h2.68v-1.502h-2.68v-4.989h-1.682v4.989zM35.43 96.498a6.433 6.433 0 00-5.362-2.629c-2.05-.053-3.994.859-5.204 2.522-.998 1.287-1.576 2.896-1.524 4.559 0 1.77.63 3.54 1.84 4.881 1.209 1.448 2.891 2.146 5.046 2.146.894 0 1.787-.161 2.628-.429.789-.322 1.472-.751 2.05-1.341.684-.644 1.21-1.395 1.63-2.253l-1.42-.751c-.367.697-.893 1.341-1.419 1.931a5.056 5.056 0 01-1.629.965c-.63.215-1.314.376-1.945.376-1.314.053-2.576-.537-3.522-1.502-.946-1.019-1.472-2.414-1.472-3.808h11.722a7.648 7.648 0 00-1.419-4.667zm-10.25 3.111a6.02 6.02 0 011.524-2.79c.894-.858 2.103-1.287 3.312-1.287.788 0 1.524.161 2.26.483.684.322 1.262.751 1.735 1.341.473.644.84 1.395.999 2.2h-9.83v.053zm-19.607 8.046h.315l5.362-13.732 5.257 13.732h.367l5.1-18.13h-1.788l-3.68 13.088-5.046-13.088h-.368l-5.099 13.088-3.627-13.088H.525l5.047 18.13zm51.199 0h1.682V89.042H56.77v18.613zm22.656-12.98c-.789-.537-1.683-.805-2.629-.752-.946 0-1.84.215-2.68.698-.894.536-1.683 1.233-2.26 2.091V89.15h-1.683v18.613h1.682v-4.935a16.803 16.803 0 01.263-3.647c.263-1.02.788-1.931 1.577-2.575.788-.697 1.734-1.019 2.733-1.019.789-.054 1.525.215 2.155.697.579.537 1 1.234 1.157 1.985.158 1.02.21 2.038.158 3.111v6.383h1.682v-6.919c.052-1.395-.105-2.736-.526-4.023a3.972 3.972 0 00-1.63-2.146zm-30.383-.054c-.894-.483-1.893-.698-2.944-.698-1.787 0-3.575.698-4.784 2.038a6.71 6.71 0 00-1.997 4.935 6.952 6.952 0 001.997 5.042c1.998 2.092 5.1 2.682 7.675 1.395.946-.483 1.735-1.18 2.365-1.985v2.307h1.683v-13.41h-1.683v2.467c-.578-.858-1.366-1.609-2.312-2.091zm2.418 6.383c0 .965-.21 1.931-.684 2.735-.473.805-1.104 1.502-1.892 1.931-.789.483-1.735.698-2.628.698-.894 0-1.788-.269-2.576-.698-.788-.482-1.472-1.18-1.892-2.038a5.525 5.525 0 010-5.418c.893-1.662 2.628-2.735 4.52-2.682 1.42-.053 2.734.537 3.68 1.556a5.435 5.435 0 011.472 3.916zM61.659 64.1h-1.682v13.41h1.682V64.1zm32.065 2.252a6.433 6.433 0 00-5.361-2.628c-2.05-.054-3.995.858-5.204 2.521-1 1.287-1.577 2.897-1.525 4.56 0 1.77.631 3.54 1.84 4.88 1.21 1.449 2.891 2.146 5.046 2.146.894 0 1.788-.16 2.629-.429.788-.322 1.472-.75 2.05-1.34.683-.645 1.209-1.395 1.63-2.254l-1.42-.75c-.368.697-.894 1.34-1.42 1.93a5.064 5.064 0 01-1.629.966c-.63.214-1.314.375-1.945.375-1.314.054-2.576-.536-3.522-1.502-.946-1.019-1.472-2.413-1.472-3.808h11.775c0-1.717-.473-3.326-1.472-4.667zm-10.197 3.111a6.02 6.02 0 011.524-2.789c.894-.858 2.103-1.287 3.312-1.287.788 0 1.524.16 2.26.483.683.321 1.261.75 1.735 1.34.473.644.84 1.395.998 2.2h-9.83v.053zM6.307 61.74c1.21-.697 2.577-1.072 3.943-1.019 1.21 0 2.47.268 3.575.805a7.445 7.445 0 012.786 2.36l1.419-1.073c-.841-1.18-1.998-2.2-3.312-2.843-1.419-.697-2.943-1.019-4.52-1.019a9.453 9.453 0 00-6.886 2.736C1.524 63.402.526 65.87.578 68.39a9.765 9.765 0 002.26 6.49c1.788 2.092 4.258 3.165 7.36 3.165 1.524 0 3.048-.322 4.468-.966 1.314-.59 2.418-1.502 3.311-2.682l-1.419-1.072c-1.524 1.93-3.837 3.003-6.255 3.003-2.103.054-4.1-.75-5.625-2.199-1.471-1.448-2.26-3.433-2.207-5.525 0-1.394.315-2.735.998-3.97.684-1.233 1.682-2.198 2.839-2.896zm30.857 2.36v13.41h1.682v-4.88a16.81 16.81 0 01.263-3.648c.263-1.02.788-1.931 1.577-2.575.788-.697 1.734-1.02 2.733-1.02.789-.053 1.525.215 2.155.698.579.537 1 1.234 1.104 1.985.158 1.019.21 2.038.21 3.11v6.384h1.683v-6.92c.052-1.34-.106-2.735-.526-4.022a4.55 4.55 0 00-1.682-2.039c-.789-.536-1.682-.804-2.629-.75-.946 0-1.84.214-2.68.697-.894.536-1.63 1.233-2.26 2.092v-2.414h-1.63V64.1zm-10.04-.321c-1.945-.054-3.785.804-5.046 2.253-2.471 2.789-2.418 7.026.105 9.762 1.261 1.395 3.101 2.145 4.94 2.092a6.372 6.372 0 004.942-2.092c2.523-2.736 2.576-6.973.105-9.763a6.31 6.31 0 00-5.046-2.252zm4.468 9.816a4.734 4.734 0 01-1.892 1.93c-1.63.913-3.575.913-5.152 0a5.492 5.492 0 01-1.892-1.93c-.473-.805-.684-1.77-.684-2.736 0-1.448.526-2.843 1.525-3.862 1.892-2.038 5.046-2.146 7.044-.215l.21.215c.999 1.02 1.524 2.414 1.524 3.862a6.02 6.02 0 01-.683 2.736zM98.298 64.1v13.41h1.682v-4.882a16.828 16.828 0 01.262-3.647c.263-1.02.789-1.931 1.577-2.575.789-.697 1.735-1.02 2.734-1.02.788-.053 1.524.215 2.155.698.578.537.999 1.234 1.104 1.985.158 1.019.21 2.038.21 3.11v6.384h1.682v-6.92c.053-1.34-.105-2.735-.525-4.022a4.556 4.556 0 00-1.682-2.039c-.789-.536-1.683-.804-2.629-.75-.946 0-1.84.214-2.681.697-.893.536-1.629 1.233-2.26 2.092v-2.414h-1.63V64.1zm-47.204 0v1.5h1.734v11.91h1.682V65.601h2.734V64.1H54.51v-1.824c0-.483 0-.966.106-1.395.052-.215.21-.375.42-.483.263-.16.526-.214.841-.214.578 0 1.104.16 1.577.429v-1.717a6.16 6.16 0 00-1.945-.321c-.526 0-1.051.107-1.524.375-.368.215-.684.59-.894 1.02a5.311 5.311 0 00-.263 2.038V64.1h-1.734zm9.724-2.682c.789 0 1.367-.644 1.367-1.395 0-.805-.63-1.448-1.42-1.448-.367 0-.735.16-.998.429a1.48 1.48 0 00-.42 1.019c.105.75.735 1.394 1.471 1.394zm15.928 5.149c-.579-.858-1.367-1.61-2.313-2.092-.894-.483-1.893-.697-2.944-.697-1.787 0-3.574.697-4.783 2.038a6.71 6.71 0 00-1.998 4.935 6.953 6.953 0 001.998 5.042c1.997 2.092 5.099 2.682 7.674 1.395.946-.483 1.735-1.18 2.366-1.985v2.306h1.682V58.896h-1.682v7.67zm-.579 7.08c-.473.805-1.103 1.502-1.892 1.931-.788.483-1.735.698-2.628.698-.894 0-1.787-.269-2.576-.698-.788-.482-1.472-1.18-1.892-2.038a5.525 5.525 0 010-5.418c.893-1.662 2.628-2.735 4.52-2.681 1.42-.054 2.734.536 3.68 1.555.999 1.02 1.524 2.467 1.524 3.916a7.052 7.052 0 01-.736 2.735zm38.163-14.536V64.1h-2.313v1.5h2.313v11.91h1.682V65.601h2.681V64.1h-2.681v-4.99h-1.682zm61.239-57.502V0H0v31.862h1.577V1.609h172.415v193.64H1.577v-27.678H0v29.287h175.569V1.609z" fill="#1D1D1D"/></svg>