<svg width="25" height="29" fill="none" xmlns="http://www.w3.org/2000/svg"><path d="M22.677 11.226h-.04a2.22 2.22 0 00-1.461.533c-.345-.896-1.18-1.537-2.154-1.537a2.254 2.254 0 00-1.575.664 2.295 2.295 0 00-2.035-1.264h-.043c-.477 0-.944.123-1.264.385V4.575c0-1.35-1.053-2.447-2.332-2.447-1.278 0-2.324 1.096-2.325 2.445l-.011 10.819-.555-.674a3.152 3.152 0 00-2.228-1.17 3.104 3.104 0 00-2.323.822l-.536.445a.513.513 0 00-.128.632L8.894 25.49c.961 1.848 2.792 2.998 4.777 2.998h5.862c3.008 0 5.458-2.607 5.46-5.81l.005-3.342c.003-2.302.004-3.149-.002-5.685-.003-1.346-1.043-2.426-2.319-2.426zm1.294 8.109l-.004 3.344c-.002 2.636-1.992 4.783-4.434 4.783h-5.862c-1.6 0-3.082-.938-3.866-2.445l-5.036-9.675.227-.19a2.085 2.085 0 011.586-.58 2.14 2.14 0 011.505.798l1.462 1.78a.514.514 0 00.91-.325l.01-12.252c0-.782.592-1.419 1.304-1.419.712 0 1.305.637 1.305 1.42v7.387l-.002.078.002.035v3.156a.513.513 0 101.027 0v-3.252c0-.755.57-1.33 1.264-1.33h.043c.713 0 1.324.608 1.324 1.392v2.89a.513.513 0 001.026 0v-2.268c0-.783.57-1.42 1.286-1.42.712 0 1.281.637 1.281 1.42V14.8a.513.513 0 001.027 0v-1.158c0-.783.569-1.39 1.281-1.39h.04c.71 0 1.29.62 1.292 1.4.006 2.535.005 3.38.002 5.682zM4.49 12.073a.515.515 0 00-.727 0l-.89.89V2.283l.89.89a.513.513 0 10.726-.726L2.852.809a.513.513 0 00-.893-.17l-.002.002L.15 2.447a.514.514 0 00.726.726l.971-.97v10.841l-.97-.97a.513.513 0 10-.727.725l1.807 1.807c.2.2.526.2.726 0l1.806-1.807a.512.512 0 000-.726z" fill="#F6F4F3"/><path d="M8.477 4.303a3.276 3.276 0 116.553 0 .513.513 0 001.027 0 4.303 4.303 0 00-8.606 0 .513.513 0 001.026 0z" fill="#F6F4F3"/></svg>