<svg width="133" height="78" fill="none" xmlns="http://www.w3.org/2000/svg"><path d="M1 65.276c4.47-3.98 8.694-8.246 12.839-12.562 10.034-10.448 20.269-22.143 25.955-35.633 1.639-3.89 2.771-7.971 3.476-12.128.22-1.3 1.33-3.31.178-3.95-.18-.101-2.035 3.097-2.272 3.476" stroke="#1D1D1D" stroke-linecap="round" stroke-linejoin="round"/><path d="M14.51 51.055c3.02-.378 5.129-2.703 7.466-4.464 7.442-5.609 15.593-10.254 23.348-15.407 9.85-6.546 19.616-13.221 29.45-19.792 3.196-2.136 6.264-4.022 8.711-6.913" stroke="#1D1D1D" stroke-linecap="round" stroke-linejoin="round"/><path d="M11.666 48.21c2.695 1.348 5.734 1.588 8.592 2.49 8.382 2.643 15.972 7.508 23.21 12.384.68.458 13.21 9.374 11.219 10.37M99.84 15.145c-4.052 13.466-7.32 27.128-13.352 39.9-2.393 5.067-10.65 19.722-8.02 14.775 10.105-18.997 27.783-31.22 42.705-46.142" stroke="#1D1D1D" stroke-linecap="round" stroke-linejoin="round"/><path d="M84.553 55.677c5.3 5.948 11.69 11.253 18.389 15.545 2.839 1.819 6.257 3.413 8.632 5.787m-42.666-8.533c.42 1.833.863 2.169 2.686 2.133.899-.017 1.782-.717.593-1.382-.623-.35-2.656-.423-2.607-.435 1.982-.466 2.235-1.755 2.528-3.516m51.909 6.044c-1.421 1.476-4.604 3.806-.889 4.05 2.722.18 7.013.14 8.888-2.271 1.919-2.467-3.056-3.522-4.444-2.134" stroke="#1D1D1D" stroke-linecap="round" stroke-linejoin="round"/></svg>