<svg width="42" height="30" fill="none" xmlns="http://www.w3.org/2000/svg"><path d="M32.616 29.336c-3.456 0-5.984-1.184-7.584-3.552-.704-.96-1.28-2.24-1.728-3.84-.448-1.6-.672-3.36-.672-5.28 0-3.328.864-6.4 2.592-9.216C26.952 4.632 29.48 2.456 32.808.92l.864 1.728c-1.664.768-3.168 1.888-4.512 3.36-1.28 1.408-2.176 2.912-2.688 4.512-.32.896-.48 1.952-.48 3.168 0 .96.064 1.664.192 2.112 1.664-1.984 4-2.976 7.008-2.976 2.56 0 4.608.736 6.144 2.208 1.536 1.408 2.304 3.424 2.304 6.048 0 2.496-.832 4.512-2.496 6.048-1.664 1.472-3.84 2.208-6.528 2.208zm-22.08 0c-3.456 0-5.984-1.184-7.584-3.552-.704-.96-1.28-2.24-1.728-3.84-.448-1.6-.672-3.36-.672-5.28 0-3.328.864-6.4 2.592-9.216C4.872 4.632 7.4 2.456 10.728.92l.864 1.728c-1.664.768-3.168 1.888-4.512 3.36C5.8 7.416 4.904 8.92 4.392 10.52c-.32.896-.48 1.952-.48 3.168 0 .96.064 1.664.192 2.112 1.664-1.984 4-2.976 7.008-2.976 2.56 0 4.608.736 6.144 2.208 1.536 1.408 2.304 3.424 2.304 6.048 0 2.496-.832 4.512-2.496 6.048-1.664 1.472-3.84 2.208-6.528 2.208z" fill="#0095BF"/></svg>