<svg width="63" height="71" fill="none" xmlns="http://www.w3.org/2000/svg"><path d="M34.68 44.379c-.335 0-.67.095-.949.284a2.43 2.43 0 00-.65.663v-.815h-.596v4.737h.595V47.24c-.019-.455.037-.89.168-1.326.111-.285.297-.512.539-.683a1.28 1.28 0 01.781-.246c.224 0 .447.057.614.19a.992.992 0 01.372.492c.093.38.13.777.112 1.175v2.425h.595V47.41c0-.682.056-1.155.168-1.458.111-.285.279-.531.52-.702.224-.17.503-.265.8-.265.224 0 .429.057.615.17a.982.982 0 01.372.455c.093.342.13.702.111 1.043v2.595h.614v-2.595a3.526 3.526 0 00-.186-1.327 1.544 1.544 0 00-.54-.7 1.55 1.55 0 00-.855-.247c-.335 0-.67.095-.967.284a2.179 2.179 0 00-.745.853 2.117 2.117 0 00-.334-.645 1.37 1.37 0 00-.503-.36 1.542 1.542 0 00-.651-.132zM20.317 46.86a2.454 2.454 0 00.707 1.781 2.325 2.325 0 002.716.493c.335-.17.615-.417.838-.701v.814h.595v-4.736h-.595v.871a2.217 2.217 0 00-.819-.739 2.17 2.17 0 00-1.042-.246c-.632 0-1.265.246-1.693.72-.446.436-.707 1.08-.707 1.743zm2.456-1.895c.502-.019.968.19 1.302.55.354.36.54.871.54 1.383 0 .34-.074.682-.242.966-.167.284-.39.53-.67.682-.279.17-.614.247-.93.247-.316 0-.633-.095-.912-.247a1.771 1.771 0 01-.67-.72 1.948 1.948 0 010-1.913c.317-.588.93-.948 1.582-.948zM4.522 48.093l-2.568-5.268h-.111L.95 49.23h.614l.614-4.623 2.25 4.623h.168l2.233-4.585.614 4.585h.614l-.912-6.404h-.093l-2.53 5.267zm9.302 1.155v-4.736h-.595v.871a2.217 2.217 0 00-.819-.739 2.17 2.17 0 00-1.042-.246c-.632 0-1.265.246-1.693.72a2.368 2.368 0 00-.707 1.743 2.454 2.454 0 00.707 1.781 2.325 2.325 0 002.717.493c.335-.17.614-.417.837-.701v.814h.595zm-.8-1.383c-.167.284-.39.53-.67.682-.279.17-.613.247-.93.247-.316 0-.632-.095-.911-.247a1.764 1.764 0 01-.67-.72 1.948 1.948 0 010-1.913c.316-.588.93-.967 1.6-.948.502-.019.967.19 1.302.55.354.36.54.871.54 1.383a2.202 2.202 0 01-.26.966zm5.637 1.364h.596v-2.444a4.094 4.094 0 00-.186-1.42 1.607 1.607 0 00-.596-.72 1.486 1.486 0 00-.93-.266c-.335 0-.651.076-.949.246-.316.19-.576.436-.8.74v-.854h-.595v4.737h.595v-1.743a5.922 5.922 0 01.093-1.288c.093-.36.28-.682.559-.91a1.43 1.43 0 01.967-.36c.279-.019.54.076.763.247.204.189.353.435.39.7.056.36.075.72.075 1.1v2.235h.018zm27.74-4.736v4.736h.595v-1.724a5.922 5.922 0 01.093-1.288c.093-.36.28-.682.559-.91a1.43 1.43 0 01.967-.36c.279-.019.54.076.763.247.204.189.353.435.39.7.056.36.075.72.075 1.1v2.254h.595v-2.444a4.093 4.093 0 00-.186-1.42 1.607 1.607 0 00-.595-.72 1.486 1.486 0 00-.93-.266 1.87 1.87 0 00-.95.246c-.316.19-.576.436-.8.74v-.854h-.576v-.038zm5.674-1.763v1.763h-.818v.53h.818v4.206h.596v-4.206h.949v-.53h-.95V42.73h-.595zm-7.274 2.558a2.278 2.278 0 00-1.898-.928 2.192 2.192 0 00-1.842.89 2.51 2.51 0 00-.54 1.61c0 .626.224 1.252.652 1.725.428.512 1.023.758 1.786.758.316 0 .633-.057.93-.152.28-.113.521-.265.726-.473a2.71 2.71 0 00.577-.796l-.503-.265c-.13.246-.316.473-.502.682a1.793 1.793 0 01-.577.34 2.214 2.214 0 01-.688.133c-.465.02-.912-.189-1.247-.53a1.993 1.993 0 01-.52-1.345h4.185a2.997 2.997 0 00-.539-1.649zm-3.628 1.1c.093-.38.28-.72.54-.986a1.691 1.691 0 011.172-.455c.279 0 .54.057.8.17.242.114.446.266.614.475.167.227.297.492.353.776h-3.479v.02zm-11.405 3.921a1.96 1.96 0 01-1.041.228 2 2 0 01-1.042-.228c-.298-.151-.521-.398-.689-.7h-.65c.13.321.315.606.557.852.224.208.484.36.782.455.353.113.707.17 1.079.17a2.6 2.6 0 001.395-.36c.372-.227.67-.587.819-1.004.13-.474.186-.966.167-1.459v-3.77h-.595v.814a2.676 2.676 0 00-.875-.72 2.139 2.139 0 00-.967-.227c-1.34 0-2.4 1.099-2.4 2.463 0 .417.112.834.316 1.213.205.36.503.663.875.871a2.426 2.426 0 002.25.095c.317-.152.615-.379.82-.663v.246a2.66 2.66 0 01-.187 1.137 1.672 1.672 0 01-.614.587zm.298-2.16a1.985 1.985 0 01-2.66 0 1.855 1.855 0 01-.521-1.288c0-.341.074-.663.242-.947a1.89 1.89 0 01.688-.702 1.87 1.87 0 01.949-.246c.316 0 .632.076.911.246.28.152.503.38.652.664.148.284.241.625.223.947.037.493-.13.985-.484 1.326zm-6.92-14.04h-.82v.53h.82v4.207h.595V34.64h.948v-.53h-.948v-1.763h-.596v1.762zm-9.88.796a2.278 2.278 0 00-1.898-.928 2.192 2.192 0 00-1.841.89 2.509 2.509 0 00-.54 1.61c0 .626.223 1.251.651 1.725.428.512 1.023.758 1.786.758.317 0 .633-.057.93-.152.28-.113.521-.265.726-.473.242-.228.428-.493.577-.796l-.502-.265c-.13.246-.317.473-.503.682a1.792 1.792 0 01-.577.34 2.215 2.215 0 01-.688.133c-.465.02-.912-.19-1.247-.53a1.993 1.993 0 01-.52-1.345h4.148a2.697 2.697 0 00-.502-1.649zm-3.628 1.1c.093-.38.28-.72.54-.986a1.692 1.692 0 011.172-.455c.279 0 .54.057.8.17.242.114.446.266.614.474.167.228.297.493.353.777H9.638v.02zm-6.94 2.841h.112l1.898-4.85 1.86 4.85h.13l1.805-6.404h-.632l-1.303 4.623-1.786-4.623h-.13l-1.805 4.623-1.283-4.623H.913l1.786 6.404zm18.122 0h.595v-6.574h-.595v6.574zm8.018-4.585a1.486 1.486 0 00-.93-.265 1.87 1.87 0 00-.949.246c-.316.19-.595.436-.8.739v-2.672h-.595v6.575h.595v-1.743a5.927 5.927 0 01.093-1.288c.093-.36.28-.683.558-.91.28-.246.614-.36.968-.36.279-.019.54.076.763.246.204.19.353.436.409.701.056.36.074.72.056 1.1v2.254h.595V36.44a4.036 4.036 0 00-.186-1.421 1.404 1.404 0 00-.577-.758zm-10.753-.019a2.17 2.17 0 00-1.042-.246c-.633 0-1.265.246-1.693.72a2.368 2.368 0 00-.707 1.743 2.454 2.454 0 00.707 1.78 2.325 2.325 0 002.716.494c.335-.171.614-.417.837-.701v.814h.596V34.11h-.596v.872a2.217 2.217 0 00-.818-.739zm.855 2.255c0 .34-.074.682-.241.966a1.806 1.806 0 01-1.6.928c-.317 0-.633-.094-.912-.246a1.771 1.771 0 01-.67-.72 1.948 1.948 0 010-1.913c.317-.588.93-.967 1.6-.948.503-.019.968.19 1.303.55.353.379.54.871.52 1.383zm3.61-13.036h-.596v4.737h.596V23.46zm11.349.796A2.279 2.279 0 0032 23.328a2.193 2.193 0 00-1.842.89 2.509 2.509 0 00-.54 1.611c0 .626.224 1.25.652 1.725.428.511 1.023.758 1.786.758.316 0 .632-.057.93-.152.28-.114.521-.265.726-.474a2.71 2.71 0 00.576-.796l-.502-.265c-.13.247-.316.474-.502.682a1.795 1.795 0 01-.577.341 2.215 2.215 0 01-.688.133c-.466.019-.912-.19-1.247-.53a1.993 1.993 0 01-.52-1.346h4.167c0-.606-.168-1.175-.521-1.648zm-3.61 1.099c.093-.38.28-.72.54-.986A1.692 1.692 0 0132 23.916c.28 0 .54.056.8.17.242.114.447.266.614.474.167.227.298.492.353.777H30.29v.019zM2.96 22.627a2.607 2.607 0 011.395-.36c.428 0 .875.095 1.266.285.39.189.725.473.986.833l.502-.379a3.189 3.189 0 00-1.172-1.004 3.597 3.597 0 00-1.6-.36 3.35 3.35 0 00-2.437.966 3.205 3.205 0 00-.968 2.369c-.018.833.26 1.648.8 2.292.633.74 1.507 1.118 2.605 1.118.54 0 1.079-.113 1.581-.34.465-.21.856-.531 1.172-.948l-.502-.38a2.813 2.813 0 01-2.214 1.062 2.783 2.783 0 01-1.99-.777 2.626 2.626 0 01-.782-1.952c0-.492.112-.966.353-1.402a2.764 2.764 0 011.005-1.023zm10.921.834v4.737h.595v-1.724a5.926 5.926 0 01.093-1.289c.093-.36.28-.682.559-.91a1.43 1.43 0 01.967-.36c.28-.018.54.076.763.247.204.19.353.436.39.701.056.36.075.72.075 1.099v2.255h.595v-2.444a4.093 4.093 0 00-.186-1.421 1.608 1.608 0 00-.595-.72 1.487 1.487 0 00-.93-.266 1.87 1.87 0 00-.95.247 2.719 2.719 0 00-.8.739v-.853h-.576v-.038zm-3.553-.114a2.295 2.295 0 00-1.786.796 2.574 2.574 0 00.037 3.448 2.284 2.284 0 001.749.74 2.257 2.257 0 001.748-.74 2.574 2.574 0 00.038-3.448 2.235 2.235 0 00-1.786-.796zm1.581 3.468c-.149.284-.39.53-.67.682a1.84 1.84 0 01-1.823 0 1.942 1.942 0 01-.67-.682 1.91 1.91 0 01-.242-.967c0-.511.186-1.004.54-1.364a1.741 1.741 0 012.493-.076l.074.076c.354.36.54.853.54 1.364 0 .341-.093.682-.242.967zm23.61-3.354v4.737h.595v-1.724a5.926 5.926 0 01.093-1.289c.093-.36.279-.682.558-.91a1.43 1.43 0 01.967-.36c.28-.018.54.076.763.247.205.19.353.436.39.701.056.36.075.72.075 1.099v2.255h.595v-2.444a4.093 4.093 0 00-.186-1.421 1.608 1.608 0 00-.595-.72 1.487 1.487 0 00-.93-.266 1.87 1.87 0 00-.949.247 2.707 2.707 0 00-.8.739v-.853h-.577v-.038zm-16.708 0v.53h.614v4.207h.596V23.99h.967v-.53h-.967v-.644c0-.17 0-.341.037-.493a.267.267 0 01.149-.17.538.538 0 01.297-.076c.205 0 .391.057.558.151v-.606a2.183 2.183 0 00-.688-.114c-.186 0-.372.038-.54.133a.849.849 0 00-.316.36 1.872 1.872 0 00-.093.72v.739h-.614zm3.442-.947c.28 0 .484-.228.484-.493a.505.505 0 00-.503-.512c-.13 0-.26.057-.353.152a.522.522 0 00-.149.36c.037.265.26.493.521.493zm5.637 1.819a2.218 2.218 0 00-.818-.74 2.17 2.17 0 00-1.042-.246c-.633 0-1.265.247-1.693.72a2.367 2.367 0 00-.707 1.743 2.453 2.453 0 00.707 1.782 2.325 2.325 0 002.716.492c.335-.17.614-.417.837-.7v.814h.596v-6.575h-.596v2.71zm-.204 2.5a1.802 1.802 0 01-1.6.929 1.94 1.94 0 01-.912-.246 1.77 1.77 0 01-.67-.72 1.948 1.948 0 010-1.914c.317-.587.93-.966 1.6-.947.503-.02.968.19 1.303.55.353.36.54.87.54 1.382a2.488 2.488 0 01-.261.967zM41.192 21.7v1.762h-.819v.53h.819v4.207h.595V23.99h.949v-.53h-.949v-1.762h-.595zM62.866 1.387V.82H.726v11.255h.559V1.387h61.023v68.4H1.285V60.01H.727v10.346h62.14V1.387z" fill="#F6F4F3"/></svg>