<svg width="35" height="35" fill="none" xmlns="http://www.w3.org/2000/svg"><path d="M30.898 0H4.102A4.106 4.106 0 000 4.102v26.796A4.106 4.106 0 004.102 35h26.796A4.106 4.106 0 0035 30.898V4.102A4.106 4.106 0 0030.898 0zm1.368 30.898a1.37 1.37 0 01-1.368 1.368h-7.793V21.123h4.224l.698-4.238h-4.922v-2.94c0-1.16.89-2.05 2.051-2.05h2.803V7.656h-2.803a6.288 6.288 0 00-6.287 6.301v2.928h-4.103v4.238h4.103v11.143H4.102a1.369 1.369 0 01-1.368-1.368V4.102a1.37 1.37 0 011.368-1.368h26.796a1.37 1.37 0 011.368 1.368v26.796z" fill="#61DCFF"/></svg>