<svg width="36" height="36" fill="none" xmlns="http://www.w3.org/2000/svg"><path d="M5.273 36h25.454A5.28 5.28 0 0036 30.727V5.273A5.28 5.28 0 0030.727 0H5.273A5.28 5.28 0 000 5.273v25.454A5.28 5.28 0 005.273 36zM2.11 5.273A3.168 3.168 0 015.273 2.11h25.454a3.168 3.168 0 013.164 3.164v25.454a3.168 3.168 0 01-3.164 3.164H5.273a3.168 3.168 0 01-3.164-3.164V5.273z" fill="#61DCFF"/><path d="M18 27.492c5.234 0 9.492-4.258 9.492-9.492 0-5.234-4.258-9.492-9.492-9.492-5.234 0-9.492 4.258-9.492 9.492 0 5.234 4.258 9.492 9.492 9.492zm0-16.875c4.071 0 7.383 3.312 7.383 7.383S22.07 25.383 18 25.383 10.617 22.07 10.617 18 13.93 10.617 18 10.617zm10.547 0a3.168 3.168 0 003.164-3.164 3.168 3.168 0 00-3.164-3.164 3.168 3.168 0 00-3.164 3.164 3.168 3.168 0 003.164 3.164zm0-4.219a1.056 1.056 0 010 2.11 1.056 1.056 0 01-1.055-1.055c0-.581.473-1.055 1.055-1.055z" fill="#61DCFF"/></svg>