<svg width="35" height="35" fill="none" xmlns="http://www.w3.org/2000/svg"><path d="M10.938 28.916H6.153v-15.45h4.785v15.45zm.477-20.371a2.803 2.803 0 10-5.605 0 2.803 2.803 0 005.606 0zm17.433 11.871c0-4.147-.877-7.223-5.721-7.223-2.328 0-3.89 1.165-4.529 2.375h-.004v-2.101h-4.649v15.449h4.649v-7.67c0-2.01.511-3.956 3.001-3.956 2.456 0 2.536 2.298 2.536 4.083v7.543h4.717v-8.5zM35 30.898V4.102A4.106 4.106 0 0030.898 0H4.102A4.106 4.106 0 000 4.102v26.796A4.106 4.106 0 004.102 35h26.796A4.106 4.106 0 0035 30.898zM30.898 2.734a1.37 1.37 0 011.368 1.368v26.796a1.37 1.37 0 01-1.368 1.368H4.102a1.369 1.369 0 01-1.368-1.368V4.102a1.37 1.37 0 011.368-1.368h26.796z" fill="#61DCFF"/></svg>